<?xml version="1.0" standalone="no"?>
<!DOCTYPE svg PUBLIC "-//W3C//DTD SVG 20010904//EN"
 "http://www.w3.org/TR/2001/REC-SVG-20010904/DTD/svg10.dtd">
<svg version="1.0" xmlns="http://www.w3.org/2000/svg"
 width="1000.000000pt" height="1000.000000pt" viewBox="0 0 1000.000000 1000.000000"
 preserveAspectRatio="xMidYMid meet">

<g transform="translate(0.000000,1000.000000) scale(0.100000,-0.100000)"
fill="#000000" stroke="none">
<path d="M0 5000 l0 -5000 5000 0 5000 0 0 5000 0 5000 -5000 0 -5000 0 0
-5000z m5120 4604 c57 -17 120 -56 155 -94 27 -30 88 -60 121 -60 24 0 26 -3
20 -32 -3 -18 -8 -63 -12 -100 l-7 -68 61 0 c58 0 62 2 77 30 14 26 21 30 59
30 52 0 56 -7 56 -91 0 -68 -21 -99 -67 -99 -22 0 -32 8 -48 37 -37 68 -120
69 -149 1 -17 -38 -36 -239 -25 -252 4 -5 30 -11 58 -14 49 -4 51 -3 87 37 27
29 45 41 65 41 39 0 50 -27 47 -108 l-3 -67 -52 -3 c-49 -3 -53 -1 -59 22 -6
25 -9 26 -80 26 l-74 0 0 -135 0 -135 26 -10 c14 -6 45 -10 70 -10 39 0 47 4
64 33 11 17 21 36 23 41 4 13 66 11 79 -2 7 -7 14 -39 16 -72 6 -80 -12 -110
-67 -110 -33 0 -40 4 -50 29 -11 26 -18 29 -74 35 -33 3 -64 3 -67 -1 -4 -5
-4 -40 -1 -80 4 -43 2 -78 -4 -85 -5 -7 -39 -38 -74 -68 l-64 -55 6 -476 c5
-308 11 -487 18 -508 8 -22 29 -43 65 -66 30 -19 56 -35 58 -35 3 0 171 -96
646 -371 146 -84 294 -169 330 -189 36 -21 180 -104 320 -185 140 -81 361
-208 490 -282 266 -153 343 -215 398 -326 39 -78 49 -112 61 -212 29 -223 47
-943 32 -1295 -5 -129 -8 -236 -7 -237 1 -1 209 -3 461 -3 l459 -2 10 29 c13
41 53 91 86 108 87 45 190 -21 190 -122 0 -51 -32 -92 -93 -122 l-42 -20
-3695 5 c-3338 5 -3698 7 -3727 21 -44 22 -67 72 -60 136 4 42 10 56 41 84 29
27 44 33 81 33 82 0 129 -41 143 -123 l8 -42 457 -3 457 -2 12 27 c13 31 15
338 8 1073 -5 387 -3 442 12 501 47 184 147 300 383 449 55 35 116 73 135 85
134 86 483 286 940 540 52 29 201 113 330 186 361 204 429 241 507 278 l72 34
12 71 c8 47 12 194 12 441 0 393 4 485 18 485 4 0 9 -35 11 -77 2 -51 7 -78
16 -81 10 -3 12 17 10 90 -3 79 -5 93 -19 90 -9 -1 -38 19 -65 45 -27 27 -61
58 -77 70 -25 22 -27 27 -27 106 l0 83 -32 -1 c-94 -4 -96 -4 -110 -35 -11
-25 -18 -30 -49 -30 -44 0 -66 22 -74 75 -4 28 -1 50 12 75 15 30 23 35 53 35
30 0 37 -5 49 -33 9 -19 25 -35 39 -39 35 -8 113 3 123 18 5 8 9 71 9 142 l0
127 -47 1 c-27 0 -58 2 -71 3 -17 2 -27 -5 -38 -26 -13 -25 -20 -28 -64 -28
l-49 0 -6 54 c-11 84 8 126 55 126 21 0 37 -10 60 -40 27 -34 37 -40 68 -40
51 0 80 9 86 26 6 15 -30 260 -40 276 -3 4 -31 8 -62 8 -56 0 -57 -1 -77 -38
-16 -29 -27 -38 -51 -40 -44 -4 -64 19 -64 74 0 46 20 107 39 118 19 12 50 -4
68 -35 16 -27 21 -29 81 -29 l64 0 -5 33 c-3 17 -9 55 -12 82 -3 28 -8 60 -11
73 -4 20 -1 22 36 22 51 0 71 10 138 71 38 35 71 54 115 68 77 25 109 25 177
5z m-3633 -5862 c56 -29 80 -67 93 -147 6 -37 15 -76 20 -86 15 -27 -2 -31
-86 -24 l-75 7 6 53 c6 45 4 55 -17 78 -35 40 -80 46 -112 14 -59 -59 -22
-147 100 -243 47 -36 96 -78 110 -92 69 -71 88 -201 43 -284 -35 -64 -99 -93
-200 -91 -139 3 -186 46 -208 192 -6 41 -14 78 -17 82 -3 5 33 9 81 9 l86 0
-7 -49 c-7 -57 -1 -93 22 -115 16 -16 59 -21 89 -10 26 10 46 59 38 95 -7 38
-82 118 -134 144 -159 80 -213 310 -101 429 64 68 178 84 269 38z m2555 8 c17
-1 81 -66 97 -99 33 -65 43 -143 51 -401 4 -150 12 -267 19 -283 6 -16 11 -30
11 -33 0 -2 -50 -4 -111 -4 -100 0 -110 2 -105 18 29 97 34 197 10 206 -25 10
-93 7 -115 -4 -16 -9 -19 -22 -19 -81 0 -38 7 -85 14 -104 l15 -35 -108 0
-107 0 7 68 c5 37 8 150 9 252 1 210 16 315 55 397 44 88 130 130 230 111 22
-4 43 -7 47 -8z m-1253 -28 c75 -37 121 -104 121 -176 0 -69 -25 -114 -85
-154 -27 -17 -51 -36 -53 -41 -2 -5 15 -19 38 -32 60 -34 88 -98 95 -219 3
-52 8 -112 11 -133 l4 -38 -97 7 c-54 3 -101 9 -105 13 -4 4 -1 42 7 85 19 98
19 167 1 211 -17 40 -42 55 -90 55 l-36 0 -1 -87 c-1 -149 2 -196 17 -232 20
-47 11 -51 -110 -51 l-98 0 8 28 c11 35 12 717 1 759 l-8 32 113 3 c165 4 207
0 267 -30z m5171 17 c80 -20 150 -110 150 -194 0 -81 -33 -130 -121 -179 -31
-17 -33 -19 -15 -30 103 -62 112 -79 124 -221 6 -60 15 -123 21 -139 16 -41 4
-46 -113 -46 l-98 0 8 73 c5 39 9 113 9 163 0 76 -3 95 -19 113 -21 23 -50 27
-90 11 -26 -9 -26 -10 -26 -128 0 -81 5 -133 15 -162 25 -72 27 -70 -94 -70
l-109 0 16 63 c13 50 16 119 17 362 0 263 -2 305 -17 343 -10 23 -18 44 -18
47 0 6 225 12 280 7 25 -2 61 -8 80 -13z m-5745 -26 c15 -96 22 -87 -59 -78
-39 5 -90 9 -114 9 l-43 1 -1 -120 c0 -66 0 -126 1 -132 1 -9 24 -13 80 -13
63 0 83 -4 102 -19 23 -19 23 -20 6 -38 -13 -14 -38 -19 -102 -23 -47 -3 -85
-8 -85 -12 0 -5 0 -62 0 -128 l0 -120 79 0 c57 0 88 5 110 17 16 10 32 15 35
12 5 -5 -10 -128 -17 -135 -2 -3 -97 -3 -210 -2 l-205 3 14 40 c34 92 34 659
1 738 l-16 37 209 0 209 0 6 -37z m998 20 c-3 -10 -11 -24 -16 -31 -6 -7 -7
-43 -4 -85 7 -94 64 -377 79 -395 10 -11 17 8 34 94 13 60 30 143 39 184 17
74 16 193 0 233 -7 16 2 17 99 17 83 0 106 -3 106 -14 0 -33 -181 -779 -192
-793 -7 -9 -38 -13 -89 -13 l-78 0 -15 53 c-8 28 -53 207 -101 397 -47 190
-88 351 -90 358 -3 9 24 12 115 12 109 0 119 -1 113 -17z m1819 -338 l-3 -355
117 0 c94 0 121 3 135 16 32 29 37 10 17 -58 l-21 -66 -85 -8 c-102 -8 -342 3
-359 18 -10 8 -9 13 1 24 21 21 28 150 24 444 -3 220 -6 271 -20 303 l-17 37
107 0 107 0 -3 -355z m818 333 c30 -16 52 -36 67 -63 46 -84 55 -145 63 -430
4 -148 10 -278 15 -287 6 -16 -1 -18 -92 -18 -55 0 -102 2 -104 4 -2 3 -1 49
2 103 6 83 5 100 -9 111 -16 12 -89 16 -116 6 -21 -8 -21 -89 -1 -164 8 -30
15 -56 15 -57 0 -2 -49 -3 -108 -3 l-109 0 13 63 c9 39 14 138 14 267 0 113 5
234 10 269 11 67 46 145 77 173 57 52 186 65 263 26z m743 -17 c67 -49 90
-102 85 -191 -3 -67 -5 -72 -48 -115 l-44 -45 41 -42 c138 -143 103 -285 -88
-360 -64 -25 -284 -38 -332 -19 l-28 11 18 32 c16 30 18 64 17 358 0 272 -3
332 -16 368 l-16 43 181 -3 182 -3 48 -34z m649 27 c25 -7 53 -27 74 -52 59
-68 66 -109 74 -416 4 -151 12 -290 18 -307 l11 -33 -109 0 -108 0 14 47 c8
25 14 72 14 104 0 47 -4 60 -19 69 -27 14 -104 13 -119 -2 -17 -17 -15 -107 3
-158 8 -23 15 -46 15 -51 0 -5 -49 -9 -110 -9 -118 0 -122 2 -95 50 11 20 14
74 15 248 0 123 5 256 11 295 17 110 65 190 129 216 35 14 135 13 182 -1z
m1262 -15 c-10 -35 -10 -634 0 -725 l8 -68 -94 0 c-117 0 -124 4 -101 56 15
34 17 76 17 349 -1 245 -4 321 -16 363 l-15 52 105 0 104 0 -8 -27z m265
-1056 c13 -6 38 -29 55 -50 25 -31 31 -48 30 -84 -1 -37 -7 -51 -36 -80 -86
-86 -216 -45 -234 74 l-6 43 -468 0 -468 0 -4 -97 c-5 -112 -28 -188 -85 -285
-51 -88 -125 -163 -203 -205 -141 -78 -419 -239 -480 -278 -333 -212 -1037
-629 -1306 -774 -342 -184 -465 -216 -659 -176 -153 32 -549 248 -1275 695
-406 250 -770 465 -906 533 -77 39 -171 143 -225 249 -40 77 -51 123 -58 228
l-6 105 -466 3 -467 2 -7 -37 c-10 -58 -49 -110 -89 -122 -52 -14 -106 2 -143
43 -28 30 -33 43 -33 83 0 51 21 94 62 125 22 17 206 18 3738 18 2924 0 3720
-3 3739 -13z"/>
<path d="M4814 9306 c-13 -21 -14 -29 -2 -52 19 -39 41 -50 75 -38 65 23 48
114 -22 114 -26 0 -39 -6 -51 -24z"/>
<path d="M5178 9318 c-42 -33 -15 -108 38 -108 28 0 64 32 64 58 0 50 -63 80
-102 50z"/>
<path d="M4830 8982 c-26 -21 -30 -66 -7 -89 23 -23 68 -19 89 7 24 30 23 55
-4 80 -27 25 -49 25 -78 2z"/>
<path d="M5174 8975 c-29 -29 -26 -58 8 -88 24 -20 55 -15 81 15 23 27 22 50
-6 76 -30 29 -52 28 -83 -3z"/>
<path d="M4774 8638 c-14 -197 -12 -263 12 -295 29 -39 91 -72 139 -73 22 -1
101 2 174 6 l135 7 44 41 45 41 -7 110 c-4 61 -9 147 -13 193 l-6 82 -257 0
-257 0 -9 -112z m143 -26 c17 -24 16 -62 -4 -84 -23 -26 -78 -24 -97 4 -23 32
-20 55 10 84 28 29 67 27 91 -4z m351 1 c32 -43 1 -103 -54 -103 -69 0 -88 97
-24 123 22 9 63 -2 78 -20z"/>
<path d="M4996 8189 c-8 -40 -8 -123 0 -143 14 -36 21 -11 23 79 2 93 -10 126
-23 64z"/>
<path d="M5173 8184 c-6 -16 4 -154 13 -177 4 -10 -30 -13 -156 -12 l-160 1 0
-213 c0 -181 2 -213 15 -213 12 0 15 29 17 183 4 247 22 243 26 -6 2 -144 5
-188 15 -184 9 2 13 54 17 185 7 244 24 246 28 5 2 -154 5 -183 17 -183 13 0
15 28 15 179 0 99 4 182 9 185 5 3 14 -1 21 -9 8 -10 11 -62 8 -185 -2 -131 0
-170 10 -170 9 0 12 42 12 178 0 98 3 181 6 185 3 3 12 3 20 0 11 -4 14 -41
14 -189 0 -141 3 -184 13 -184 9 0 11 41 9 182 -2 137 0 183 10 189 6 4 16 5
20 3 4 -3 8 -88 8 -190 0 -158 2 -184 15 -184 14 0 15 39 14 320 -1 269 -3
320 -15 320 -8 0 -17 -7 -21 -16z"/>
<path d="M4865 7473 c-5 -32 -7 -78 -6 -103 5 -84 5 -115 -3 -180 -7 -69 1
-97 28 -87 14 6 16 32 16 198 0 169 2 190 15 179 12 -10 15 -46 15 -201 0
-161 2 -189 15 -189 13 0 15 28 15 190 0 162 2 190 15 190 13 0 15 -28 15
-190 0 -162 2 -190 15 -190 13 0 15 28 15 191 0 176 1 190 18 187 15 -3 17
-21 20 -191 1 -113 6 -187 12 -187 6 0 10 69 10 179 0 187 3 211 26 211 11 0
14 -34 14 -190 0 -187 0 -190 21 -190 21 0 21 1 14 185 -7 167 -6 185 9 185
14 0 16 -21 16 -178 0 -172 5 -202 32 -202 14 0 10 414 -4 428 -8 8 -61 12
-174 12 l-161 0 -8 -57z"/>
<path d="M4775 7053 c-16 -9 -140 -81 -275 -161 -135 -80 -288 -169 -340 -200
-52 -30 -160 -93 -240 -140 -80 -47 -181 -106 -225 -132 -44 -25 -123 -71
-175 -102 -52 -30 -201 -117 -330 -193 -129 -76 -293 -172 -363 -213 -142 -82
-166 -107 -234 -242 l-38 -75 -3 -788 c-2 -713 -1 -788 14 -794 35 -13 44 18
56 198 10 144 9 233 -5 514 -29 565 -21 816 28 923 53 115 114 167 379 324 94
55 196 115 226 133 30 18 71 42 90 53 19 11 76 43 125 72 79 46 204 116 425
240 36 20 106 59 155 87 50 28 113 63 140 78 249 139 605 343 623 357 13 11
17 78 5 78 -5 -1 -21 -8 -38 -17z"/>
<path d="M4870 7060 c-12 -7 -15 -40 -17 -167 -3 -197 4 -274 22 -267 10 4 13
26 12 82 -3 119 14 313 27 309 6 -2 10 -17 9 -33 -2 -16 -5 -95 -7 -176 -4
-124 -3 -150 10 -163 9 -8 20 -15 25 -15 5 0 9 80 9 190 0 161 2 190 15 190
12 0 15 -30 17 -192 2 -142 6 -192 16 -196 9 -3 12 40 12 192 0 168 2 196 15
196 8 0 16 -4 16 -10 1 -5 3 -14 4 -20 1 -5 3 -89 4 -185 1 -109 5 -175 11
-175 6 0 10 72 10 195 0 188 1 195 20 195 19 0 20 -8 22 -187 3 -159 5 -188
18 -188 13 0 16 30 20 189 4 161 7 187 19 173 9 -12 14 -65 18 -194 6 -255 23
-234 23 29 0 153 -3 217 -12 226 -15 15 -315 17 -338 2z"/>
<path d="M5256 7062 c-3 -6 -3 -23 0 -39 5 -24 23 -39 112 -90 272 -156 494
-284 565 -327 43 -25 80 -46 82 -46 3 0 37 -20 77 -43 80 -48 131 -77 773
-447 472 -272 501 -293 553 -398 55 -109 54 -100 56 -901 2 -681 3 -745 18
-755 10 -6 20 -8 23 -4 3 3 6 364 6 801 l0 796 -32 63 c-41 82 -109 165 -167
207 -26 18 -126 78 -222 133 -96 55 -231 133 -300 173 -69 40 -224 131 -345
201 -121 70 -262 151 -312 181 -120 69 -264 152 -383 221 -52 30 -179 104
-282 164 -209 121 -214 123 -222 110z"/>
<path d="M4705 6861 c-73 -44 -197 -115 -755 -436 -107 -62 -298 -172 -425
-245 -126 -73 -282 -162 -345 -198 -372 -212 -416 -246 -477 -370 l-28 -57 2
-223 c1 -122 5 -227 8 -232 4 -6 191 -9 493 -9 542 0 504 5 516 -71 5 -32 11
-41 31 -45 14 -3 36 -7 50 -10 14 -3 43 -23 64 -44 65 -65 76 -162 30 -253
-20 -38 -38 -51 -124 -80 -36 -12 -40 -18 -48 -58 -5 -25 -16 -51 -25 -57 -12
-10 -129 -13 -504 -13 -458 0 -488 -1 -488 -17 0 -10 -1 -110 -2 -223 l-2
-205 582 -3 581 -2 25 52 c31 67 72 194 91 284 21 101 19 295 -7 481 -41 303
-24 476 62 642 106 204 344 341 629 360 l93 6 -6 -430 c-4 -236 -9 -495 -11
-575 -5 -144 -5 -145 -32 -165 -197 -143 -302 -304 -333 -508 -14 -97 -7 -139
23 -135 20 3 23 11 29 82 15 168 72 290 193 414 83 84 101 95 107 65 8 -35
-12 -75 -66 -134 -76 -81 -133 -200 -148 -305 -10 -73 -10 -85 5 -108 l17 -26
166 0 c130 0 168 3 180 14 12 12 14 71 14 335 0 328 3 352 38 317 14 -14 14
-19 -7 -60 -21 -44 -22 -53 -20 -326 1 -263 3 -280 20 -280 9 0 25 7 33 16 14
13 16 56 15 322 0 169 0 315 0 325 1 9 8 17 17 17 13 0 15 -6 9 -32 -5 -18
-10 -166 -12 -328 -3 -270 -2 -296 14 -307 43 -32 43 -31 43 327 0 296 2 340
15 340 18 0 17 31 18 -355 l2 -320 30 0 30 0 -1 300 c0 165 -4 317 -8 338 -7
31 -6 37 8 37 14 0 16 -30 16 -307 0 -323 6 -373 42 -373 18 0 19 15 15 318
-2 174 -5 326 -8 337 -3 12 2 20 14 23 15 3 17 -8 18 -115 1 -65 4 -217 8
-338 l6 -220 173 -3 172 -2 11 27 c6 16 9 63 7 105 -6 108 -71 242 -158 328
-53 52 -61 65 -58 92 2 17 8 33 14 35 6 2 41 -23 79 -54 113 -96 188 -247 205
-411 11 -102 17 -122 35 -122 53 0 21 227 -53 380 -38 77 -116 166 -232 263
l-55 46 -7 308 c-5 169 -11 407 -14 527 -3 120 -3 238 0 261 l7 42 47 -3 c277
-19 494 -117 619 -279 39 -51 86 -145 108 -215 22 -73 30 -262 16 -380 -26
-211 -42 -428 -36 -480 17 -158 60 -321 111 -422 l24 -48 580 0 580 0 0 229 0
228 -114 7 c-63 4 -284 6 -491 6 -207 -1 -378 0 -379 2 -2 2 -7 23 -12 47 -9
42 -11 44 -55 55 -97 25 -149 94 -150 204 -2 95 38 145 134 172 50 13 67 32
67 72 0 13 6 32 13 41 11 16 51 18 497 20 l485 2 3 234 c2 227 2 235 -21 285
-63 138 -269 275 -1062 711 -540 297 -544 298 -816 462 -113 67 -213 123 -223
123 -18 0 -18 -13 -12 -292 4 -161 9 -356 11 -433 4 -137 9 -314 20 -765 3
-124 10 -364 16 -534 5 -170 7 -311 4 -314 -3 -3 -18 -1 -33 4 -25 9 -27 14
-32 79 l-5 70 -45 7 c-58 8 -252 8 -310 0 l-45 -7 -6 -62 c-7 -69 -18 -89 -54
-96 -30 -5 -28 -54 -15 468 17 707 25 960 44 1435 14 365 12 440 -12 439 -10
-1 -53 -22 -97 -48z m-671 -622 c53 -15 119 -79 146 -142 30 -69 30 -160 0
-222 -55 -113 -233 -139 -303 -44 -43 59 -28 166 28 203 30 20 109 23 130 6
32 -26 7 -100 -35 -100 -9 0 -31 11 -50 25 -40 29 -50 21 -50 -40 0 -74 52
-113 134 -101 34 5 52 16 79 45 101 112 16 316 -137 329 -101 8 -188 -52 -236
-162 -10 -25 -39 -126 -64 -226 -82 -326 -139 -420 -273 -450 -51 -12 -113 -6
-154 16 -14 7 -53 41 -86 75 -50 52 -67 63 -104 68 -61 9 -110 -3 -136 -34
-43 -49 -22 -145 31 -145 17 0 26 7 30 25 9 34 38 48 70 33 36 -16 34 -50 -4
-82 -79 -66 -183 -24 -204 83 -19 103 114 200 241 176 21 -4 40 -7 43 -6 3 0
8 19 12 42 19 110 166 156 249 78 30 -28 31 -33 27 -86 -4 -43 -10 -61 -28
-75 -37 -30 -80 -9 -80 40 0 17 7 24 30 29 17 3 30 8 30 12 -2 70 -96 97 -150
43 -38 -39 -47 -90 -25 -148 51 -134 245 -133 332 1 41 63 65 134 102 310 36
167 61 242 101 306 65 100 191 149 304 118z m2169 -1 c54 -16 140 -97 172
-161 24 -50 49 -140 95 -350 49 -223 159 -344 292 -322 28 5 53 20 84 49 42
41 44 45 44 102 0 68 -14 95 -59 114 -35 14 -93 7 -111 -15 -9 -11 -5 -20 19
-46 35 -36 38 -54 14 -81 -22 -25 -40 -23 -68 8 -29 32 -33 89 -10 134 55 106
248 60 262 -62 l5 -45 87 4 c78 5 89 3 121 -19 74 -50 97 -121 64 -191 -33
-69 -125 -90 -184 -41 -23 20 -30 34 -28 53 3 22 8 26 41 29 34 3 39 0 48 -27
21 -60 89 -26 89 45 0 47 -38 97 -83 107 -67 16 -103 2 -181 -72 -40 -38 -83
-74 -96 -81 -39 -21 -138 -18 -191 7 -103 46 -150 133 -219 409 -70 278 -103
345 -196 390 -105 51 -211 13 -267 -96 -54 -104 -20 -208 78 -246 38 -14 52
-15 85 -5 66 20 91 83 51 132 l-18 23 -27 -21 c-47 -37 -97 1 -82 61 6 22 12
26 46 26 122 0 184 -94 131 -198 -30 -59 -55 -75 -120 -80 -88 -6 -159 36
-202 120 -32 62 -23 155 20 224 68 111 179 157 294 122z"/>
<path d="M4858 6583 c-3 -8 -3 -183 0 -340 1 -46 6 -83 12 -83 6 0 11 74 12
188 2 148 6 187 16 187 11 0 14 -36 14 -180 0 -99 2 -183 5 -187 2 -4 13 -2
23 5 19 11 20 24 20 196 0 166 2 182 16 170 13 -11 15 -38 12 -190 -3 -162 -1
-178 14 -183 16 -4 18 12 20 187 3 163 5 192 18 192 13 0 15 -29 18 -190 2
-104 8 -194 13 -199 5 -6 9 60 9 171 0 174 4 213 19 213 19 0 31 -89 31 -234
0 -122 3 -157 13 -154 9 4 13 56 17 199 4 164 7 194 20 194 17 0 17 0 19 -222
1 -143 3 -163 17 -163 13 0 15 7 10 31 -3 17 -6 114 -6 215 l0 184 -179 0
c-99 0 -181 -3 -183 -7z"/>
<path d="M4851 5931 c-13 -206 -11 -244 15 -234 11 4 14 38 14 194 0 161 2
189 15 189 12 0 15 -20 16 -117 2 -219 4 -256 14 -260 16 -5 35 139 35 265 0
90 3 112 14 112 12 0 14 -30 11 -177 -3 -170 1 -203 26 -203 5 0 9 86 9 190 0
183 1 190 20 190 19 0 20 -7 20 -195 0 -123 4 -195 10 -195 6 0 10 68 10 185
0 172 1 185 19 195 11 5 22 10 25 10 3 0 6 -85 6 -189 0 -159 2 -190 15 -195
13 -5 15 20 15 189 0 190 1 195 21 195 20 0 20 -5 18 -181 -1 -181 1 -198 34
-199 4 0 7 90 7 199 0 168 -2 202 -16 215 -13 13 -44 16 -188 16 l-173 0 -12
-199z"/>
<path d="M4847 5653 c-4 -3 -7 -100 -7 -214 0 -166 3 -208 14 -212 19 -8 26
54 26 239 0 149 1 154 21 154 20 0 20 -5 19 -192 -2 -232 -3 -215 12 -200 9 9
12 64 10 202 -2 184 -2 190 18 190 19 0 20 -6 20 -195 0 -188 1 -195 20 -195
19 0 20 7 20 196 0 171 2 195 15 192 14 -3 16 -29 16 -183 1 -104 5 -188 11
-199 10 -19 11 -19 24 -1 11 14 14 63 14 203 0 163 2 183 15 172 12 -10 15
-44 15 -190 0 -146 3 -180 15 -190 13 -11 15 10 15 178 0 152 3 192 14 201 28
24 36 -21 36 -208 0 -154 2 -181 15 -181 13 0 15 30 15 208 0 148 -3 211 -12
220 -13 13 -369 18 -381 5z"/>
<path d="M4840 4980 c0 -191 2 -219 15 -214 13 5 15 36 15 189 0 186 5 210 36
184 12 -10 15 -44 14 -193 -1 -122 2 -182 9 -184 8 -3 11 50 11 173 0 167 7
215 30 215 6 0 11 -80 12 -192 3 -164 5 -193 18 -193 13 0 15 29 18 193 2 174
4 192 20 192 16 0 17 -15 14 -177 -3 -141 0 -182 11 -197 31 -41 37 -10 37
185 0 148 3 190 13 187 9 -4 13 -54 17 -191 3 -102 8 -189 13 -193 21 -22 28
24 28 200 0 171 1 187 17 184 15 -3 18 -25 22 -193 5 -176 6 -190 24 -193 16
-4 18 0 12 28 -3 18 -6 117 -6 221 l0 189 -200 0 -200 0 0 -220z"/>
<path d="M2677 5054 c-3 -3 -3 -12 0 -20 4 -12 81 -14 474 -14 l469 0 0 -44
c0 -24 6 -48 13 -54 6 -5 38 -16 71 -23 79 -17 126 -60 126 -115 0 -81 -36
-110 -160 -132 l-45 -8 -5 -54 -5 -55 -467 -3 c-304 -1 -468 -6 -468 -12 0 -7
168 -9 488 -8 l487 3 5 50 5 50 45 5 c56 7 79 20 119 65 26 30 31 44 31 89 0
38 -6 62 -23 87 -26 40 -98 79 -144 79 -32 0 -33 1 -33 44 0 83 45 76 -494 76
-266 0 -485 -3 -489 -6z"/>
<path d="M6440 5023 c0 -70 -7 -80 -58 -87 -94 -12 -146 -65 -146 -150 -1 -92
65 -162 158 -168 34 -3 36 -5 36 -40 0 -74 -41 -68 491 -68 309 0 479 4 479
10 0 6 -166 11 -462 12 l-463 3 -3 50 c-2 27 -8 55 -13 61 -5 6 -37 14 -71 16
-70 5 -99 29 -117 95 -22 79 56 153 161 153 l48 0 -4 41 c-7 74 -43 69 465 69
452 0 459 0 459 20 0 20 -7 20 -480 20 l-480 0 0 -37z"/>
<path d="M2880 4870 c-29 -29 -25 -57 15 -97 19 -19 35 -43 35 -53 0 -21 -29
-34 -54 -24 -12 4 -16 0 -16 -15 0 -18 6 -21 40 -21 27 0 45 6 60 22 32 34 25
65 -22 108 -36 34 -40 41 -28 55 7 9 22 14 34 13 13 -2 22 3 24 15 5 25 -61
24 -88 -3z"/>
<path d="M3010 4775 l0 -115 50 0 c43 0 50 3 50 20 0 16 -7 20 -30 20 -27 0
-30 3 -30 29 0 25 4 30 28 33 16 2 27 9 27 18 0 9 -11 16 -27 18 -22 3 -28 9
-28 28 0 23 12 29 48 25 6 -1 12 7 12 19 0 17 -6 20 -50 20 l-50 0 0 -115z"/>
<path d="M3150 4775 c0 -107 1 -115 19 -115 16 0 20 8 23 43 2 34 7 43 24 45
33 5 58 39 58 79 0 45 -23 63 -81 63 l-43 0 0 -115z m78 68 c12 -23 -3 -63
-23 -63 -11 0 -15 11 -15 40 0 43 21 55 38 23z"/>
<path d="M3290 4874 c0 -9 9 -18 20 -21 18 -5 20 -14 20 -99 0 -94 0 -94 25
-94 25 0 25 0 25 95 0 88 1 95 20 95 13 0 20 7 20 20 0 18 -7 20 -65 20 -53 0
-65 -3 -65 -16z"/>
<path d="M6648 4883 c-30 -8 -20 -32 15 -35 47 -4 48 -40 2 -106 -50 -74 -48
-82 26 -82 52 0 60 2 57 18 -2 10 -13 17 -28 18 -14 1 -28 2 -33 3 -4 0 6 20
23 43 32 44 41 107 17 126 -16 13 -57 21 -79 15z"/>
<path d="M6811 4873 c-41 -33 -49 -137 -14 -191 11 -18 22 -22 46 -20 41 4 57
35 57 116 0 54 -4 67 -25 87 -29 30 -36 30 -64 8z m44 -46 c4 -13 5 -45 3 -73
-2 -37 -7 -50 -20 -52 -16 -3 -18 5 -18 66 0 38 3 72 7 75 12 13 23 7 28 -16z"/>
<path d="M6963 4875 c-45 -31 -54 -136 -17 -193 21 -32 73 -27 91 8 24 48 11
190 -18 190 -4 0 -13 2 -21 5 -7 3 -23 -2 -35 -10z m41 -41 c9 -24 7 -117 -3
-133 -18 -28 -31 1 -31 68 0 37 3 71 7 74 11 11 20 8 27 -9z"/>
<path d="M7103 4883 c-35 -7 -28 -31 10 -35 53 -5 47 -59 -17 -133 -40 -47
-35 -55 37 -55 50 0 64 3 64 15 0 10 -10 15 -27 15 -40 0 -41 8 -9 53 31 43
40 106 17 125 -18 13 -49 20 -75 15z"/>
<path d="M3901 3606 c-19 -30 -21 -49 -21 -185 l0 -151 26 -10 c35 -14 87 -12
106 3 23 18 11 310 -15 350 -26 40 -69 37 -96 -7z"/>
<path d="M2600 3530 l0 -120 44 0 c33 0 52 6 73 24 25 22 28 30 28 90 0 61 -2
66 -34 95 -26 23 -44 31 -73 31 l-38 0 0 -120z"/>
<path d="M7796 3634 c-12 -30 -7 -191 7 -202 73 -58 165 24 138 124 -13 47
-19 55 -51 77 -31 22 -86 22 -94 1z"/>
<path d="M5685 3617 c-18 -28 -38 -205 -30 -262 14 -94 41 -116 112 -92 l38
12 3 139 c2 124 0 143 -19 182 -18 39 -25 44 -55 44 -24 0 -38 -6 -49 -23z"/>
<path d="M6390 3650 c-11 -7 -16 -34 -18 -109 -4 -99 -4 -101 21 -112 26 -12
80 -6 106 10 19 12 26 101 11 145 -19 60 -79 92 -120 66z"/>
<path d="M6404 3313 c-28 -5 -34 -28 -34 -138 0 -140 11 -156 88 -136 58 16
75 41 80 114 5 83 -15 133 -62 152 -20 8 -39 14 -43 14 -4 -1 -18 -4 -29 -6z"/>
<path d="M7127 3628 c-35 -27 -47 -82 -47 -223 l0 -135 28 -11 c17 -7 43 -8
72 -2 l45 8 3 162 c2 137 0 167 -14 188 -18 28 -59 34 -87 13z"/>
<path d="M2550 2508 c0 -138 53 -267 152 -369 39 -40 88 -74 183 -126 72 -39
168 -92 215 -118 86 -48 472 -279 590 -354 36 -22 81 -50 100 -61 19 -11 109
-65 200 -121 417 -255 762 -442 902 -488 122 -41 253 -26 407 45 216 100 643
345 1194 685 119 74 240 148 267 164 28 17 76 46 108 66 31 19 164 99 295 178
255 153 268 165 322 284 28 61 48 165 43 227 -3 40 -6 45 -28 45 -22 0 -25 -5
-28 -40 -14 -218 -90 -336 -288 -444 -155 -84 -464 -266 -832 -490 -592 -361
-995 -586 -1164 -651 -105 -41 -187 -41 -295 -1 -165 61 -598 303 -1143 639
-204 126 -502 302 -690 408 -280 159 -296 170 -353 239 -62 77 -88 148 -95
258 l-5 87 -28 0 c-29 0 -29 0 -29 -62z"/>
<path d="M2675 2559 c-4 -6 -4 -41 0 -77 22 -206 102 -279 628 -570 l198 -110
92 -7 c51 -3 414 -8 808 -10 l716 -3 2 51 c3 88 21 216 52 365 35 170 35 188
9 202 -27 14 -25 24 6 38 24 12 44 48 58 105 l6 27 -1284 0 c-909 0 -1287 -3
-1291 -11z m1913 -101 c-3 -7 -34 -31 -70 -53 -98 -59 -108 -71 -108 -122 0
-41 4 -47 75 -115 86 -82 105 -124 82 -180 -28 -65 -100 -115 -210 -144 -74
-20 -109 -19 -105 3 2 11 33 31 85 53 114 49 143 76 143 133 0 44 -2 48 -90
128 -82 75 -90 86 -90 119 0 39 20 66 87 117 67 51 212 95 201 61z m244 -38
c-1 -25 -18 -115 -37 -201 -22 -98 -35 -182 -35 -227 0 -70 1 -72 25 -72 14 0
77 27 141 60 63 33 117 60 120 60 14 0 0 -34 -27 -65 -72 -82 -279 -145 -329
-100 -39 35 -28 125 51 447 34 136 41 149 79 144 11 -1 14 -13 12 -46z"/>
<path d="M5317 2562 c-3 -4 -6 -27 -8 -52 -3 -42 -2 -45 21 -43 14 1 61 5 106
9 98 8 124 -2 124 -49 0 -36 -10 -53 -83 -141 -64 -77 -62 -98 13 -109 103
-16 100 -14 100 -53 0 -48 -59 -130 -193 -268 -57 -59 -101 -108 -99 -110 5
-6 49 8 97 30 35 16 70 19 300 19 143 0 394 -4 557 -9 199 -6 301 -6 310 1 7
6 45 27 83 48 192 104 504 288 595 352 64 44 85 69 121 146 25 54 32 86 37
152 l5 85 -1041 0 c-572 0 -1043 -3 -1045 -8z"/>
<path d="M5308 2408 c-16 -5 -28 -13 -28 -18 0 -4 -6 -45 -14 -91 -8 -46 -26
-163 -41 -259 -14 -96 -35 -197 -45 -224 -11 -27 -18 -51 -16 -53 10 -11 97
23 119 45 121 129 226 287 204 308 -4 4 -32 9 -64 11 -65 4 -83 15 -83 50 0
26 12 47 77 137 24 32 43 69 43 82 0 23 -3 24 -62 23 -35 0 -75 -5 -90 -11z"/>
<path d="M3680 1713 c0 -6 12 -20 28 -31 42 -30 252 -152 262 -152 10 0 19
158 10 178 -8 18 -300 23 -300 5z"/>
<path d="M4520 1717 l-45 -12 -3 -112 -3 -113 31 0 30 0 0 -140 0 -139 92 -50
c50 -27 97 -47 105 -44 10 4 13 44 13 189 0 173 1 184 19 184 36 0 46 28 46
131 0 53 -2 99 -5 102 -13 12 -238 16 -280 4z"/>
<path d="M4900 1722 c-25 -8 -25 -10 -28 -125 l-3 -117 31 0 30 0 0 -234 c0
-200 2 -237 16 -250 23 -23 57 -29 128 -21 l63 6 7 46 c3 25 6 137 6 249 l0
204 30 0 30 0 0 110 0 110 -27 12 c-33 13 -247 20 -283 10z"/>
<path d="M5755 1726 c-5 -2 -22 -7 -37 -10 l-28 -6 0 -115 c0 -104 2 -115 18
-115 32 0 42 -22 42 -87 l0 -64 108 55 c160 83 164 87 170 178 6 93 -3 144
-25 153 -20 7 -233 17 -248 11z"/>
<path d="M6104 1705 c-13 -18 -21 -175 -9 -175 2 0 59 29 127 65 127 68 188
108 177 120 -4 3 -68 7 -144 8 -127 2 -138 0 -151 -18z"/>
<path d="M4060 1694 c-6 -14 -10 -65 -10 -114 0 -77 3 -92 21 -108 30 -29 237
-134 249 -127 5 3 10 33 10 65 0 58 0 59 34 70 42 13 46 27 34 115 -5 38 -8
79 -5 91 4 20 -1 21 -116 28 -200 10 -206 10 -217 -20z"/>
<path d="M5414 1713 c-153 -4 -144 4 -144 -122 0 -73 1 -75 38 -110 l37 -36
-9 -118 c-9 -126 -2 -227 16 -227 6 0 50 22 98 50 l87 50 7 61 c3 34 6 95 6
135 0 72 0 72 29 79 36 8 39 15 47 113 8 102 -4 133 -48 130 -18 -1 -92 -4
-164 -5z"/>
</g>
</svg>
